<svg xmlns="http://www.w3.org/2000/svg" xmlns:xlink="http://www.w3.org/1999/xlink" viewBox="0 0 396 206"><defs>
<style>.cls-1{fill:#fc8777;}.cls-2,.cls-5{font-size:9px;font-family:RobotoSlab-Regular, Roboto Slab;}.cls-2{fill:#fff;}.cls-3{letter-spacing:-0.02em;}.cls-4,.cls-5{fill:#4777c0;}.cls-6{letter-spacing:-0.01em;}.cls-7{letter-spacing:0em;}.cls-8{letter-spacing:-0.01em;}.cls-9{letter-spacing:-0.05em;}.cls-10{letter-spacing:-0.06em;}.cls-11{letter-spacing:0.01em;}.cls-12{fill:url(#linear-gradient);}.cls-13{fill:#ffd42b;}.cls-14{letter-spacing:0.01em;}.cls-15{letter-spacing:-0.02em;}.cls-16{letter-spacing:-0.01em;}.cls-17,.cls-21{opacity:0.6;}.cls-18,.cls-19,.cls-20,.cls-21,.cls-22{fill:none;stroke:#4777c0;}.cls-18,.cls-20,.cls-21,.cls-22{stroke-linecap:round;}.cls-18,.cls-20,.cls-21{stroke-linejoin:round;}.cls-19,.cls-22{stroke-miterlimit:10;}.cls-20{stroke-dasharray:1 4.99;}</style><linearGradient id="linear-gradient" x1="144" y1="103" x2="252" y2="103" gradientUnits="userSpaceOnUse"><stop offset="0" stop-color="#4777c0"/><stop offset="0.58" stop-color="#57a1e5"/><stop offset="1" stop-color="#61bafb"/></linearGradient></defs>
<g id="Base"><rect class="cls-1" x="0.23" y="90" width="108" height="26"/><text class="cls-2" transform="translate(16.9 107)">
 <tspan class="cls-3">W</tspan><tspan x="8.26" y="0">ebGPU / </tspan><tspan class="cls-3" x="44.99" y="0">W</tspan><tspan x="53.24" y="0">ebGL</tspan></text>
 <path class="cls-4" d="M259,55V79H153V55H259m1-1H152V80H260V54Z" transform="translate(-8 -9)"/><text class="cls-5" transform="translate(156.78 56)">JS ML <tspan class="cls-6" x="28.79" y="0">F</tspan><tspan x="34.27" y="0">ra</tspan><tspan class="cls-7" x="42.95" y="0">m</tspan><tspan x="51.41" y="0">ewo</tspan><tspan class="cls-8" x="68.74" y="0">r</tspan><tspan x="72.37" y="0">ks</tspan><tspan class="cls-9" x="-11.2" y="10.8">T</tspan><tspan x="-5.99" y="10.8">ensorF</tspan><tspan class="cls-8" x="23.59" y="10.8">l</tspan><tspan x="26.34" y="10.8">o</tspan><tspan class="cls-10" x="31.39" y="10.8">w</tspan><tspan x="38.29" y="10.8">.js, ON</tspan><tspan class="cls-11" x="64.77" y="10.8">N</tspan><tspan x="71.7" y="10.8">X.js...</tspan></text><path class="cls-4" d="M115.23,10V34H9.23V10h106m1-1H8.23V35h108V9Z" transform="translate(-8 -9)"/><text class="cls-5" transform="translate(24.42 17)">ON<tspan class="cls-11" x="13.21" y="0">N</tspan><tspan x="20.14" y="0">X Models</tspan></text><path class="cls-4" d="M259,10V34H153V10H259m1-1H152V35H260V9Z" transform="translate(-8 -9)"/><text class="cls-5" transform="translate(156.33 17)"><tspan class="cls-9">T</tspan><tspan x="5.21" y="0">ensorF</tspan><tspan class="cls-8" x="34.79" y="0">l</tspan><tspan x="37.54" y="0">ow Models</tspan></text>
 <path class="cls-4" d="M403,10V34H297V10H403m1-1H296V35H404V9Z" transform="translate(-8 -9)"/>
 <text class="cls-5" transform="translate(313.35 17)">Ot<tspan class="cls-7" x="9.65" y="0">h</tspan><tspan x="15.41" y="0">er Models</tspan></text><rect class="cls-12" x="144" y="90" width="108" height="26"/><text class="cls-2" transform="translate(173.26 107)">
 <tspan class="cls-3">W</tspan><tspan x="8.26" y="0">ebNN API</tspan></text><rect class="cls-13" x="288" y="90" width="108" height="26"/><text class="cls-2" transform="translate(294.54 107)"><tspan class="cls-3">W</tspan><tspan x="8.26" y="0">ebAssem</tspan><tspan class="cls-7" x="47.42" y="0">b</tspan><tspan x="52.58" y="0">ly </tspan><tspan class="cls-14" x="62.76" y="0">(</tspan><tspan class="cls-15" x="65.75" y="0">W</tspan><tspan x="74" y="0">asm)</tspan></text>
 <path class="cls-4" d="M88.87,145v24h-79V145h79m1-1h-81v26h81V144Z" transform="translate(-8 -9)"/><text class="cls-5" transform="translate(14.22 146)">ML Compute<tspan x="0.63" y="10.8">macOS / iOS</tspan></text><path class="cls-4" d="M194,145v24H115V145h79m1-1H114v26h81V144Z" transform="translate(-8 -9)"/><text class="cls-5" transform="translate(126.77 146)">Di<tspan class="cls-16" x="9.19" y="0">r</tspan><tspan x="12.83" y="0">ectML</tspan><tspan x="-0.06" y="10.8">Wi</tspan><tspan class="cls-7" x="11.29" y="10.8">n</tspan><tspan x="17.04" y="10.8">dows</tspan></text><path class="cls-4" d="M300,145v24H221V145h79m1-1H220v26h81V144Z" transform="translate(-8 -9)"/><text class="cls-5" transform="translate(236.92 146)">NN API<tspan x="-1.81" y="10.8">A</tspan><tspan class="cls-7" x="4.78" y="10.8">n</tspan>
 <tspan x="10.53" y="10.8">d</tspan><tspan class="cls-8" x="15.93" y="10.8">r</tspan><tspan x="19.57" y="10.8">oid</tspan></text><path class="cls-4" d="M403,145v24H324V145h79m1-1H323v26h81V144Z" transform="translate(-8 -9)"/><text class="cls-5" transform="translate(333 146)">OpenVINO<tspan x="10.14" y="10.8">Linux</tspan></text><path class="cls-4" d="M115.23,190v24H9.23V190h106m1-1H8.23v26h108V189Z" transform="translate(-8 -9)"/><text class="cls-5" transform="translate(45.08 197)">CPU</text><path class="cls-4" d="M259,190v24H153V190H259m1-1H152v26H260V189Z" transform="translate(-8 -9)"/>
 <text class="cls-5" transform="translate(188.71 197)">GPU</text><path class="cls-4" d="M403,190v24H297V190H403m1-1H296v26H404V189Z" transform="translate(-8 -9)"/><text class="cls-5" transform="translate(307.03 197)">ML Accelera<tspan class="cls-8" x="53.36" y="0">t</tspan><tspan x="56.57" y="0">ors</tspan></text></g><g id="Lines" class="cls-17"><line class="cls-18" x1="198.5" y1="41.19" x2="198.5" y2="26.5"/><polygon class="cls-4" points="201.49 40.32 198.5 45.5 195.51 40.32 201.49 40.32"/><line class="cls-18" x1="197.5" y1="71.5" x2="197.5" y2="86.19"/><polygon class="cls-4" points="194.51 85.32 197.5 90.5 200.49 85.32 194.51 85.32"/><line class="cls-18" x1="255.81" y1="103.5" x2="283.19" y2="103.5"/><polygon class="cls-4" points="256.68 106.49 251.5 103.5 256.68 100.51 256.68 106.49"/><polygon class="cls-4" points="282.32 106.49 287.5 103.5 282.32 100.51 282.32 106.49"/><line class="cls-18" x1="112.31" y1="103.5" x2="139.69" y2="103.5"/><polygon class="cls-4" points="113.18 106.49 108 103.5 113.18 100.51 113.18 106.49"/>
 <polygon class="cls-4" points="138.82 106.49 144 103.5 138.82 100.51 138.82 106.49"/><path class="cls-19" d="M365.5,133.5" transform="translate(-8 -9)"/><path class="cls-19" d="M48.5,132.5" transform="translate(-8 -9)"/><path class="cls-19" d="M205.32,132.87" transform="translate(-8 -9)"/><path class="cls-19" d="M205.32,124.87" transform="translate(-8 -9)"/><line class="cls-18" x1="0.5" y1="166.5" x2="1" y2="166.5"/><line class="cls-20" x1="5.99" y1="166.51" x2="392.51" y2="167.49"/>
 <line class="cls-18" x1="395" y1="167.5" x2="395.5" y2="167.5"/><line class="cls-18" x1="199.5" y1="167.5" x2="199.5" y2="175.69"/><polygon class="cls-4" points="196.51 174.82 199.5 180 202.49 174.82 196.51 174.82"/><line class="cls-18" x1="342.32" y1="167.28" x2="342.32" y2="175.48"/><polygon class="cls-4" points="339.33 174.6 342.32 179.78 345.31 174.6 339.33 174.6"/><line class="cls-18" x1="51.32" y1="167.28" x2="51.32" y2="175.48"/><polygon class="cls-4" points="48.33 174.6 51.32 179.78 54.31 174.6 48.33 174.6"/><path class="cls-21" d="M350,35l-.38,8.07a2.56,2.56,0,0,1-2.55,2.43H209.29a2.55,2.55,0,0,0-2.54,2.78L207,51l-.29-3.22a2.55,2.55,0,0,0-2.54-2.32H62A2.57,2.57,0,0,1,59.45,43l-.13-7.49" transform="translate(-8 -9)"/><path class="cls-22" d="M205.5,124.5v5.88a2.12,2.12,0,0,1-2.12,2.12H50.62a2.12,2.12,0,0,0-2.12,2.12v5.07" transform="translate(-8 -9)"/><polygon class="cls-4" points="37.51 129.82 40.5 135 43.49 129.82 37.51 129.82"/><path class="cls-18" d="M205.5,124.5V130A2.51,2.51,0,0,1,203,132.5H157A2.51,2.51,0,0,0,154.5,135v4.68" transform="translate(-8 -9)"/><polygon class="cls-4" points="143.51 129.82 146.5 135 149.49 129.82 143.51 129.82"/><path class="cls-18" d="M205.5,124.5V130A2.48,2.48,0,0,0,208,132.5h50A2.51,2.51,0,0,1,260.5,135v4.68" transform="translate(-8 -9)"/>
 <polygon class="cls-4" points="249.51 129.82 252.5 135 255.49 129.82 249.51 129.82"/>
 <path class="cls-18" d="M205.5,124.5V130A2.47,2.47,0,0,0,208,132.5l155,1A2.52,2.52,0,0,1,365.5,136v3.71" transform="translate(-8 -9)"/>
 <polygon class="cls-4" points="354.51 129.82 357.5 135 360.49 129.82 354.51 129.82"/>

 </g>
 </svg>