<svg xmlns="http://www.w3.org/2000/svg" xmlns:xlink="http://www.w3.org/1999/xlink" viewBox="0 0 395.77 206"><defs><style>.cls-1{fill:#fc8777;}.cls-2,.cls-5{font-size:9px;font-family:RobotoSlab-Regular, Roboto Slab;}.cls-2{fill:#fff;}.cls-3{letter-spacing:-0.02em;}.cls-4,.cls-5{fill:#4777c0;}.cls-6{letter-spacing:-0.01em;}.cls-7{letter-spacing:0em;}.cls-8{letter-spacing:-0.01em;}.cls-9{letter-spacing:-0.05em;}.cls-10{letter-spacing:-0.06em;}.cls-11{letter-spacing:0.01em;}.cls-12{fill:url(#linear-gradient);}.cls-13{fill:#ffd42b;}.cls-14{letter-spacing:0.01em;}.cls-15{letter-spacing:-0.02em;}.cls-16{letter-spacing:-0.01em;}.cls-17,.cls-21{opacity:0.6;}.cls-18,.cls-19,.cls-20,.cls-21,.cls-22{fill:none;stroke:#4777c0;stroke-width:0.25px;}.cls-18,.cls-20,.cls-21,.cls-22{stroke-linecap:round;}.cls-18,.cls-20,.cls-21{stroke-linejoin:round;}.cls-19,.cls-22{stroke-miterlimit:10;}.cls-20{stroke-dasharray:1 4.99;}</style><linearGradient id="linear-gradient" x1="143.77" y1="103" x2="251.77" y2="103" gradientUnits="userSpaceOnUse"><stop offset="0" stop-color="#4777c0"/><stop offset="0.58" stop-color="#57a1e5"/><stop offset="1" stop-color="#61bafb"/></linearGradient></defs><title>webnn-arch-light</title><g id="Base"><rect class="cls-1" y="90" width="108" height="26"/><text class="cls-2" transform="translate(16.67 107)"><tspan class="cls-3">W</tspan><tspan x="8.26" y="0">ebGPU / </tspan><tspan class="cls-3" x="44.99" y="0">W</tspan><tspan x="53.24" y="0">ebGL</tspan></text><path class="cls-4" d="M259.75,54.25v25.5H152.25V54.25h107.5M260,54H152V80H260V54Z" transform="translate(-8.23 -9)"/><text class="cls-5" transform="translate(156.55 56)">JS ML <tspan class="cls-6" x="28.79" y="0">F</tspan><tspan x="34.27" y="0">ra</tspan><tspan class="cls-7" x="42.95" y="0">m</tspan><tspan x="51.41" y="0">ewo</tspan><tspan class="cls-8" x="68.74" y="0">r</tspan><tspan x="72.37" y="0">ks</tspan><tspan class="cls-9" x="-11.2" y="10.8">T</tspan><tspan x="-5.99" y="10.8">ensorF</tspan><tspan class="cls-8" x="23.59" y="10.8">l</tspan><tspan x="26.34" y="10.8">o</tspan><tspan class="cls-10" x="31.39" y="10.8">w</tspan><tspan x="38.29" y="10.8">.js, ON</tspan><tspan class="cls-11" x="64.77" y="10.8">N</tspan><tspan x="71.7" y="10.8">X.js...</tspan></text><path class="cls-4" d="M116,9.25v25.5H8.48V9.25H116m.25-.25H8.23V35h108V9Z" transform="translate(-8.23 -9)"/><text class="cls-5" transform="translate(24.19 17)">ON<tspan class="cls-11" x="13.21" y="0">N</tspan><tspan x="20.14" y="0">X Models</tspan></text><path class="cls-4" d="M259.75,9.25v25.5H152.25V9.25h107.5M260,9H152V35H260V9Z" transform="translate(-8.23 -9)"/><text class="cls-5" transform="translate(156.1 17)"><tspan class="cls-9">T</tspan><tspan x="5.21" y="0">ensorF</tspan><tspan class="cls-8" x="34.79" y="0">l</tspan><tspan x="37.54" y="0">ow Models</tspan></text><path class="cls-4" d="M403.75,9.25v25.5H296.25V9.25h107.5M404,9H296V35H404V9Z" transform="translate(-8.23 -9)"/><text class="cls-5" transform="translate(313.12 17)">Ot<tspan class="cls-7" x="9.65" y="0">h</tspan><tspan x="15.41" y="0">er Models</tspan></text><rect class="cls-12" x="143.77" y="90" width="108" height="26"/><text class="cls-2" transform="translate(173.03 107)"><tspan class="cls-3">W</tspan><tspan x="8.26" y="0">ebNN API</tspan></text><rect class="cls-13" x="287.77" y="90" width="108" height="26"/><text class="cls-2" transform="translate(294.31 107)"><tspan class="cls-3">W</tspan><tspan x="8.26" y="0">ebAssem</tspan><tspan class="cls-7" x="47.42" y="0">b</tspan><tspan x="52.58" y="0">ly </tspan><tspan class="cls-14" x="62.76" y="0">(</tspan><tspan class="cls-15" x="65.75" y="0">W</tspan><tspan x="74" y="0">asm)</tspan></text><path class="cls-4" d="M89.62,144.25v25.5H9.12v-25.5h80.5m.25-.25h-81v26h81V144Z" transform="translate(-8.23 -9)"/><text class="cls-5" transform="translate(13.99 146)">ML Compute<tspan x="0.63" y="10.8">macOS / iOS</tspan></text><path class="cls-4" d="M194.75,144.25v25.5h-80.5v-25.5h80.5M195,144H114v26h81V144Z" transform="translate(-8.23 -9)"/><text class="cls-5" transform="translate(126.54 146)">Di<tspan class="cls-16" x="9.19" y="0">r</tspan><tspan x="12.83" y="0">ectML</tspan><tspan x="-0.06" y="10.8">Wi</tspan><tspan class="cls-7" x="11.29" y="10.8">n</tspan><tspan x="17.04" y="10.8">dows</tspan></text><path class="cls-4" d="M300.75,144.25v25.5h-80.5v-25.5h80.5M301,144H220v26h81V144Z" transform="translate(-8.23 -9)"/><text class="cls-5" transform="translate(236.69 146)">NN API<tspan x="-1.81" y="10.8">A</tspan><tspan class="cls-7" x="4.78" y="10.8">n</tspan><tspan x="10.53" y="10.8">d</tspan><tspan class="cls-8" x="15.93" y="10.8">r</tspan><tspan x="19.57" y="10.8">oid</tspan></text><path class="cls-4" d="M403.75,144.25v25.5h-80.5v-25.5h80.5M404,144H323v26h81V144Z" transform="translate(-8.23 -9)"/><text class="cls-5" transform="translate(332.77 146)">OpenVINO<tspan x="10.14" y="10.8">Linux</tspan></text><path class="cls-4" d="M116,189.25v25.5H8.48v-25.5H116m.25-.25H8.23v26h108V189Z" transform="translate(-8.23 -9)"/><text class="cls-5" transform="translate(44.85 197)">CPU</text><path class="cls-4" d="M259.75,189.25v25.5H152.25v-25.5h107.5M260,189H152v26H260V189Z" transform="translate(-8.23 -9)"/><text class="cls-5" transform="translate(188.48 197)">GPU</text><path class="cls-4" d="M403.75,189.25v25.5H296.25v-25.5h107.5M404,189H296v26H404V189Z" transform="translate(-8.23 -9)"/><text class="cls-5" transform="translate(306.8 197)">ML Accelera<tspan class="cls-8" x="53.36" y="0">t</tspan><tspan x="56.57" y="0">ors</tspan></text></g><g id="Lines" class="cls-17"><line class="cls-18" x1="198.27" y1="43.26" x2="198.27" y2="26.5"/><polygon class="cls-4" points="199.66 42.21 198.27 42.8 196.88 42.21 198.27 45.5 199.66 42.21"/><line class="cls-18" x1="197.27" y1="90.5" x2="197.27" y2="73.74"/><polygon class="cls-4" points="198.66 74.79 197.27 74.2 195.88 74.79 197.27 71.5 198.66 74.79"/><line class="cls-18" x1="253.51" y1="103.5" x2="285.03" y2="103.5"/><polygon class="cls-4" points="254.56 104.89 253.97 103.5 254.56 102.11 251.27 103.5 254.56 104.89"/><polygon class="cls-4" points="283.98 104.89 284.57 103.5 283.98 102.11 287.27 103.5 283.98 104.89"/><line class="cls-18" x1="110.01" y1="103.5" x2="141.53" y2="103.5"/><polygon class="cls-4" points="111.06 104.89 110.47 103.5 111.06 102.11 107.77 103.5 111.06 104.89"/><polygon class="cls-4" points="140.48 104.89 141.07 103.5 140.48 102.11 143.77 103.5 140.48 104.89"/><path class="cls-19" d="M365.5,133.5" transform="translate(-8.23 -9)"/><path class="cls-19" d="M48.5,132.5" transform="translate(-8.23 -9)"/><path class="cls-19" d="M205.32,132.87" transform="translate(-8.23 -9)"/><path class="cls-19" d="M205.32,124.87" transform="translate(-8.23 -9)"/><line class="cls-18" x1="0.27" y1="166.5" x2="0.77" y2="166.5"/><line class="cls-20" x1="5.76" y1="166.51" x2="392.28" y2="167.49"/><line class="cls-18" x1="394.77" y1="167.5" x2="395.27" y2="167.5"/><line class="cls-18" x1="199.27" y1="167.5" x2="199.27" y2="177.76"/><polygon class="cls-4" points="197.88 176.71 199.27 177.3 200.66 176.71 199.27 180 197.88 176.71"/><line class="cls-18" x1="342.09" y1="167.28" x2="342.09" y2="177.54"/><polygon class="cls-4" points="340.7 176.49 342.09 177.08 343.48 176.49 342.09 179.78 340.7 176.49"/><line class="cls-18" x1="51.09" y1="167.28" x2="51.09" y2="177.54"/><polygon class="cls-4" points="49.7 176.49 51.09 177.08 52.48 176.49 51.09 179.78 49.7 176.49"/><path class="cls-21" d="M350,35l-.38,8.07a2.54,2.54,0,0,1-2.53,2.43H210.59a2.55,2.55,0,0,0-2.52,2.78l.25,2.76L208,47.82a2.54,2.54,0,0,0-2.52-2.32H64.66A2.55,2.55,0,0,1,62.13,43L62,35.5" transform="translate(-8.23 -9)"/><path class="cls-22" d="M48.5,141.76v-7.14a2.12,2.12,0,0,1,2.12-2.12H203.38a2.12,2.12,0,0,0,2.12-2.12V124.5" transform="translate(-8.23 -9)"/><polygon class="cls-4" points="41.66 131.71 40.27 132.3 38.88 131.71 40.27 135 41.66 131.71"/><path class="cls-18" d="M205.5,124.5V130A2.51,2.51,0,0,1,203,132.5H157A2.51,2.51,0,0,0,154.5,135v6.75" transform="translate(-8.23 -9)"/><polygon class="cls-4" points="144.88 131.71 146.27 132.3 147.66 131.71 146.27 135 144.88 131.71"/><path class="cls-18" d="M205.5,124.5V130A2.48,2.48,0,0,0,208,132.5h50A2.51,2.51,0,0,1,260.5,135v6.75" transform="translate(-8.23 -9)"/><polygon class="cls-4" points="250.88 131.71 252.27 132.3 253.66 131.71 252.27 135 250.88 131.71"/><path class="cls-18" d="M205.5,124.5V130A2.47,2.47,0,0,0,208,132.5l155,1A2.52,2.52,0,0,1,365.5,136v5.78" transform="translate(-8.23 -9)"/><polygon class="cls-4" points="355.88 131.71 357.27 132.3 358.66 131.71 357.27 135 355.88 131.71"/><path class="cls-18" d="M152,67l-84.53.47a5,5,0,0,0-5,5V96.76" transform="translate(-8.23 -9)"/><polygon class="cls-4" points="52.88 86.71 54.27 87.3 55.66 86.71 54.27 90 52.88 86.71"/><path class="cls-18" d="M260,67l84.51.47a5,5,0,0,1,5,5V96.76" transform="translate(-8.23 -9)"/><polygon class="cls-4" points="339.88 86.71 341.27 87.3 342.66 86.71 341.27 90 339.88 86.71"/></g></svg>