<svg id="Layer_1" data-name="Layer 1" xmlns="http://www.w3.org/2000/svg" xmlns:xlink="http://www.w3.org/1999/xlink" viewBox="0 0 434.25 406.22"><defs><style>.cls-1{fill:none;}.cls-2{fill:#f8f8f9;}.cls-3{fill:#fff;}.cls-4{fill:#3766ae;}.cls-5{fill:#4777c0;}.cls-6{fill:#4aa4e3;}.cls-7{fill:#61bafb;}.cls-8{fill:#d6eff0;}.cls-9{fill:#d0ebff;}.cls-10{fill:#6d828b;}.cls-11{fill:#ffe15f;}.cls-12{fill:#fc8777;}.cls-13{fill:#f7acfe;}.cls-14{fill:#a8d0e6;}.cls-15{fill:#b1fafb;}.cls-16{fill:#f8e9a1;}.cls-17{clip-path:url(#clip-path);}.cls-18{fill:#efac8f;}.cls-19{fill:#f0fbff;}.cls-20{fill:#8a1735;}.cls-21{fill:#e0a486;}.cls-22{fill:#c9eeff;}.cls-23{fill:#ffc49c;}.cls-24{fill:#665959;}.cls-25{fill:#534747;}.cls-26{fill:#c86b56;}.cls-27{fill:#eefbff;}.cls-28{fill:#383349;}.cls-29{fill:#e6977c;}.cls-30{fill:#34485d;}.cls-31{fill:#ccd0d6;}.cls-32{fill:#f7f7f7;}.cls-33{fill:#f2b891;}.cls-34{clip-path:url(#clip-path-2);}.cls-35{fill:#6e6060;}.cls-36{fill:#f09a43;}.cls-37{fill:#c6a589;}.cls-38{fill:#e3bf9c;}.cls-39{fill:#d6b396;}.cls-40{clip-path:url(#clip-path-3);}.cls-41{fill:#7a8ba4;}.cls-42{fill:#e7ebe9;}.cls-43{fill:#4896b5;}.cls-44{fill:#38759a;}.cls-45{clip-path:url(#clip-path-4);}.cls-46{fill:#4e4966;}.cls-47{fill:#876a64;}.cls-48{clip-path:url(#clip-path-5);}.cls-49{fill:#bcdce8;}.cls-50{fill:#f5faff;}.cls-51{fill:#333b4d;}.cls-52{clip-path:url(#clip-path-6);}.cls-53{fill:#2a2e47;}.cls-54{fill:#3c4260;}.cls-55{fill:#1c1f2b;}.cls-56{fill:#f0e9e2;}.cls-57{font-size:6px;fill:#333;font-family:RobotoSlab-Light, Roboto Slab;font-weight:300;}.cls-58{letter-spacing:-0.01em;}.cls-59{letter-spacing:0em;}.cls-60{fill:#f7e8cb;}.cls-61{fill:#fcf2d6;}.cls-62{fill:#90b665;}.cls-63{fill:#719253;}.cls-64{fill:#e1d5c9;}.cls-65{fill:#d6ccc0;}.cls-66{fill:#d45f36;}.cls-67{fill:#c95230;}.cls-68{fill:#8c643e;}.cls-69{fill:#7f5634;}.cls-70{fill:#ffe5bd;}.cls-71{fill:#313235;}.cls-72{fill:#3a3b3f;}.cls-73{fill:#724b2d;}.cls-74{fill:#c18255;}.cls-75{fill:#c27156;}.cls-76{fill:#6d6a61;}.cls-77{fill:#5a5a5a;}</style><clipPath id="clip-path" transform="translate(-676.08 -62.13)"><circle class="cls-1" cx="891.04" cy="211.8" r="19.38"/></clipPath><clipPath id="clip-path-2" transform="translate(-676.08 -62.13)"><circle class="cls-1" cx="939.3" cy="256.62" r="19.38"/></clipPath><clipPath id="clip-path-3" transform="translate(-676.08 -62.13)"><circle class="cls-1" cx="986.48" cy="209.59" r="21.59"/></clipPath><clipPath id="clip-path-4" transform="translate(-676.08 -62.13)"><circle class="cls-1" cx="891.04" cy="256.62" r="19.38"/></clipPath><clipPath id="clip-path-5" transform="translate(-676.08 -62.13)"><circle class="cls-1" cx="938.66" cy="211.8" r="19.38"/></clipPath><clipPath id="clip-path-6" transform="translate(-676.08 -62.13)"><circle class="cls-1" cx="986.72" cy="256.62" r="19.38"/></clipPath></defs><title>webnn-hero</title><polygon class="cls-2" points="349.92 220.87 349.92 128.87 262.38 128.87 259.91 164.48 262.38 220.87 349.92 220.87"/><rect class="cls-3" x="174.53" y="128.93" width="87.52" height="91.98"/><polygon class="cls-4" points="259.58 261.08 262.05 271.73 291.07 271.73 282.14 252.35 262.05 252.35 259.58 261.08"/><polygon class="cls-5" points="262.05 252.35 241.96 252.35 233.03 271.73 262.05 271.73 262.05 252.35"/><path class="cls-6" d="M938.13,290.85l-2.47,12,2.47,11.65h91.75a3.67,3.67,0,0,0,3.69-3.65v-20Z" transform="translate(-676.08 -62.13)"/><path class="cls-7" d="M842.7,290.85v20a3.67,3.67,0,0,0,3.69,3.65h91.74V290.85Z" transform="translate(-676.08 -62.13)"/><path class="cls-4" d="M1028.38,183.16H938.13v1.68a2,2,0,0,1,2,2,1.86,1.86,0,0,1-.13.63,2,2,0,0,1-1.88,1.36v2.25h87.52v92H938.13l-2.47,4.12,2.47,3.69h95.44V188.14A5.07,5.07,0,0,0,1028.38,183.16Z" transform="translate(-676.08 -62.13)"/><path class="cls-5" d="M938.13,184.84v-1.68H847.87a5.08,5.08,0,0,0-5.17,5V290.85h95.43V283H850.61v-92h87.52v-2.25a2,2,0,0,1-1.88-1.36,2.13,2.13,0,0,1-.12-.63A2,2,0,0,1,938.13,184.84Z" transform="translate(-676.08 -62.13)"/><path class="cls-6" d="M971.55,333.86H938.13l-2.47,3,2.47,3h33.42c1.27,0,2.31-1.34,2.31-3S972.82,333.86,971.55,333.86Z" transform="translate(-676.08 -62.13)"/><path class="cls-7" d="M904.72,333.86c-1.27,0-2.31,1.34-2.31,3s1,3,2.31,3h33.41v-6Z" transform="translate(-676.08 -62.13)"/><rect class="cls-8" x="255.13" y="69.37" width="179.12" height="7.37"/><rect class="cls-9" x="395.51" width="18.25" height="69.37"/><path class="cls-3" d="M1086.19,119.8a5.47,5.47,0,1,1-5.47-5.4A5.44,5.44,0,0,1,1086.19,119.8Z" transform="translate(-676.08 -62.13)"/><rect class="cls-9" x="354.68" width="18.25" height="69.37"/><ellipse class="cls-3" cx="363.81" cy="57.67" rx="5.47" ry="5.41"/><rect class="cls-9" x="375.1" width="18.25" height="69.37"/><ellipse class="cls-3" cx="384.22" cy="57.67" rx="5.47" ry="5.41"/><rect class="cls-8" x="336.66" y="14.27" width="15.41" height="55.1"/><polygon class="cls-8" points="333.12 69.37 317.74 68.36 321.44 13.38 336.82 14.39 333.12 69.37"/><polygon class="cls-8" points="311.23 69.37 296.06 66.7 305.82 12.45 321 15.12 311.23 69.37"/><polygon class="cls-8" points="289.45 69.37 274.67 65.06 290.43 12.21 305.21 16.52 289.45 69.37"/><rect class="cls-9" x="16.59" y="204.82" width="19.43" height="72.72"/><path class="cls-3" d="M696.57,327.23a5.82,5.82,0,1,0,5.82-5.76A5.78,5.78,0,0,0,696.57,327.23Z" transform="translate(-676.08 -62.13)"/><rect class="cls-9" x="38.33" y="204.82" width="19.43" height="72.72"/><path class="cls-3" d="M718.3,327.23a5.83,5.83,0,1,0,5.82-5.76A5.79,5.79,0,0,0,718.3,327.23Z" transform="translate(-676.08 -62.13)"/><rect class="cls-8" x="57.99" y="229.66" width="13.39" height="47.88"/><polygon class="cls-8" points="74.46 277.55 87.83 276.67 84.61 228.89 71.25 229.77 74.46 277.55"/><polygon class="cls-8" points="93.48 277.55 106.67 275.23 98.18 228.08 84.99 230.4 93.48 277.55"/><polygon class="cls-8" points="112.41 277.55 125.26 273.8 111.56 227.87 98.72 231.62 112.41 277.55"/><rect class="cls-8" x="6.4" y="282.81" width="16.71" height="112.49"/><rect class="cls-8" x="406.29" y="282.81" width="16.71" height="112.49"/><rect class="cls-8" y="277.55" width="429.41" height="8.89"/><path class="cls-10" d="M1012.26,356.57a5.21,5.21,0,0,0-5.22,5.16v90.55a5.2,5.2,0,0,0,5.22,5.15h40.59a5.2,5.2,0,0,0,5.22-5.15V361.73a5.21,5.21,0,0,0-5.22-5.16Z" transform="translate(-676.08 -62.13)"/><path class="cls-10" d="M1052.85,356.57h-20.3V457.43h20.3a5.2,5.2,0,0,0,5.22-5.15V361.73A5.21,5.21,0,0,0,1052.85,356.57Z" transform="translate(-676.08 -62.13)"/><path class="cls-8" d="M1052.8,435.66c0,1.41-1,2.58-3.88,2.58h-32.74c-2.87,0-3.88-1.17-3.88-2.58s1-2.59,3.88-2.59h32.74C1051.8,433.07,1052.8,434.24,1052.8,435.66Z" transform="translate(-676.08 -62.13)"/><path class="cls-8" d="M1052.8,424.46c0,1.42-1,2.58-3.88,2.58h-32.74c-2.87,0-3.88-1.16-3.88-2.58s1-2.58,3.88-2.58h32.74C1051.8,421.88,1052.8,423,1052.8,424.46Z" transform="translate(-676.08 -62.13)"/><path class="cls-8" d="M1052.8,365.83c0,1.42-1,2.58-3.88,2.58h-32.74c-2.87,0-3.88-1.16-3.88-2.58s1-2.58,3.88-2.58h32.74C1051.8,363.25,1052.8,364.42,1052.8,365.83Z" transform="translate(-676.08 -62.13)"/><path class="cls-8" d="M1052.81,424.46c0-1.42-1-2.58-3.89-2.58h-16.37V427h16.37C1051.8,427,1052.81,425.88,1052.81,424.46Z" transform="translate(-676.08 -62.13)"/><path class="cls-8" d="M1048.92,363.25h-16.37v5.16h16.37c2.88,0,3.89-1.16,3.89-2.58S1051.8,363.25,1048.92,363.25Z" transform="translate(-676.08 -62.13)"/><path class="cls-8" d="M1052.81,435.66c0-1.42-1-2.59-3.89-2.59h-16.37v5.17h16.37C1051.8,438.24,1052.81,437.07,1052.81,435.66Z" transform="translate(-676.08 -62.13)"/><path class="cls-11" d="M1025.59,408.9a7,7,0,1,1,7,6.87A6.92,6.92,0,0,1,1025.59,408.9Z" transform="translate(-676.08 -62.13)"/><path class="cls-12" d="M1032.55,402v13.75a6.88,6.88,0,1,0,0-13.75Z" transform="translate(-676.08 -62.13)"/><circle class="cls-13" cx="310.42" cy="194.37" r="19.5"/><circle class="cls-7" cx="262.42" cy="149.37" r="19.5"/><circle class="cls-14" cx="263.42" cy="194.37" r="19.5"/><circle class="cls-15" cx="214.42" cy="149.37" r="19.5"/><circle class="cls-16" cx="214.42" cy="194.37" r="19.5"/><g class="cls-17"><path class="cls-18" d="M897.74,211c-1-.48-1.53.62-1.53.62s-1,3.18,0,3.3a2,2,0,0,0,2-1.18c.24-.4.47-2.27-.51-2.74Z" transform="translate(-676.08 -62.13)"/><path class="cls-18" d="M883.2,210.74c-1,.47-.75,2.35-.5,2.75a2,2,0,0,0,2,1.18c.94-.12,0-3.3,0-3.3s-.56-1.1-1.54-.63Z" transform="translate(-676.08 -62.13)"/><path class="cls-19" d="M887.51,222.16a18.43,18.43,0,0,1-3.61,1.19,5,5,0,0,0-3.74,2.15c-1,1.5-1,1.35-1,1.35s1.3,2.74,6,4,14.05.73,18.58-3.18c0,0-1.18-3.51-3.65-4.27a15.7,15.7,0,0,0-4.86-.65Z" transform="translate(-676.08 -62.13)"/><path class="cls-20" d="M893.08,227.77a9.7,9.7,0,0,0,.4-1.71c1.58-1.67,1.27-2.53.95-2.49-.7.09-.71,1-1.22,1.41s-1,1.3-2.93.59l-.39-.47a4.64,4.64,0,0,1-1.54-1.13,7.49,7.49,0,0,0,1.44,2.2,10.19,10.19,0,0,0,.34,1.54c.26.74.58.64.58.64l-.15,3s2.46-.06,2.46-.09c-.21-1.9-.36-3.12-.36-3.12a.67.67,0,0,0,.42-.4Z" transform="translate(-676.08 -62.13)"/><path class="cls-21" d="M888,218.81a6.35,6.35,0,0,1-.24,2.52,2.7,2.7,0,0,1-.85,1.16l4.65,3.32s2.92-2.39,2.72-3.67a1.14,1.14,0,0,1-.46-.69c-.05-.41,0-2.95,0-2.95Z" transform="translate(-676.08 -62.13)"/><path class="cls-22" d="M895,221.73c-.85-.52-1.19-.42-1.19-.42a.92.92,0,0,0,.46.83,2,2,0,0,1-.66,1.41c-.71.77-1.91,1.28-2,2.26,0-.17-.15-.5-.86-.87-1.06-.54-3.61-2.49-2.87-3.82,0,0-.82.17-1.3,1.45a5.47,5.47,0,0,0-.29,1.79,2.33,2.33,0,0,0,1,1.8,14.66,14.66,0,0,1,1.89,2.32s.88-3,1.36-3a3.46,3.46,0,0,1,1,.32,1.86,1.86,0,0,0,.64-.32c.8-.53,1.37-.56,1.74,0a23.75,23.75,0,0,1,1.14,2.34s.41-2.55.61-3.36.15-2.23-.69-2.74Z" transform="translate(-676.08 -62.13)"/><path class="cls-23" d="M889.88,205.9s-3.73-.16-4.71,2.12a11.19,11.19,0,0,0-.43,6.28c.27,1.14,1.61,4,3.42,5a6.17,6.17,0,0,0,5.14,0c1.39-.79,1.92-2.05,2.51-4.13s2-6.59-.43-8.12a9.42,9.42,0,0,0-5.5-1.18Z" transform="translate(-676.08 -62.13)"/><path class="cls-24" d="M894.28,206.72a2.08,2.08,0,0,1,1.84,1.43,16,16,0,0,1,.51,3.56c0,.14.56-.62.75-1.11.73-1.76.35-4.82-.71-5.33s-2.39,1.45-2.39,1.45Z" transform="translate(-676.08 -62.13)"/><path class="cls-25" d="M884.54,210.6c.14-1.28.84-3.92,2.84-4.27s6.41,1.06,7.69.39,2.86-2.2,1.6-4.55a1.76,1.76,0,0,1-1.86.92,2.53,2.53,0,0,0,1.24-1c.39-.7.31-1,.31-1s-.55.62-2.59,0-5.54-1-7.81,1.37-2.71,4.24-2.75,5.74a5,5,0,0,0,1.08,3.28c.23.17.23-.64.25-.86Z" transform="translate(-676.08 -62.13)"/><path class="cls-26" d="M890.9,217.08a3.6,3.6,0,0,1-2.08-.67l-.18-.14a.24.24,0,1,1,.29-.37l.16.13a3.13,3.13,0,0,0,1.89.58,3.09,3.09,0,0,0,1.86-.69.24.24,0,0,1,.33,0,.24.24,0,0,1,0,.34,3.54,3.54,0,0,1-2.13.79Z" transform="translate(-676.08 -62.13)"/><path class="cls-27" d="M888.36,210.91h-1.19a.62.62,0,1,0,0,1.24h1.19a.62.62,0,1,0,0-1.24Z" transform="translate(-676.08 -62.13)"/><path class="cls-28" d="M888.36,211.45a.57.57,0,0,0-1.14,0,.57.57,0,0,0,1.14,0Z" transform="translate(-676.08 -62.13)"/><path class="cls-27" d="M894.17,211.08,893,211a.63.63,0,0,0-.06,1.25l1.19,0a.62.62,0,1,0,.06-1.24Z" transform="translate(-676.08 -62.13)"/><path class="cls-28" d="M894.15,211.6a.58.58,0,0,0-1.15,0,.58.58,0,0,0,1.15,0Z" transform="translate(-676.08 -62.13)"/><path class="cls-25" d="M889,209h-2.19a.52.52,0,0,0-.52.52.51.51,0,0,0,.52.51H889a.52.52,0,0,0,.52-.51A.53.53,0,0,0,889,209Z" transform="translate(-676.08 -62.13)"/><path class="cls-25" d="M894.94,209.31l-2.19-.1a.5.5,0,0,0-.54.49.53.53,0,0,0,.49.54l2.19.1a.52.52,0,0,0,.05-1Z" transform="translate(-676.08 -62.13)"/><path class="cls-29" d="M891.79,214.22c0-.56-.52-1.3-.94-1.3s-.87.69-.87,1.25a.78.78,0,0,0,.87.78c.42,0,.94-.17.94-.73Z" transform="translate(-676.08 -62.13)"/><path class="cls-27" d="M887.84,211l-.16.11a.09.09,0,0,0,0,.13.08.08,0,0,0,.12,0l.16-.11a.08.08,0,0,0,0-.12.1.1,0,0,0-.12,0Z" transform="translate(-676.08 -62.13)"/><path class="cls-27" d="M893.65,211.07l-.16.11a.08.08,0,0,0,0,.12.09.09,0,0,0,.12,0l.16-.11a.09.09,0,0,0,0-.13.08.08,0,0,0-.12,0Z" transform="translate(-676.08 -62.13)"/><path class="cls-30" d="M885.53,220.75s-.17-1-.07-1.06.57-.33.67,0,.3,2.7.3,2.7-.58.41-.62.28S885.53,220.75,885.53,220.75Z" transform="translate(-676.08 -62.13)"/><path class="cls-3" d="M888.9,199.06a3.49,3.49,0,0,0-2.36.76c-.51.37-1.39,1.16-1.06,1.84a.26.26,0,0,0,.28.11c.3-.06.44-.27.62-.49a5.18,5.18,0,0,1,.74-.74,8.2,8.2,0,0,1,1.86-.9A.32.32,0,0,0,888.9,199.06Z" transform="translate(-676.08 -62.13)"/><polygon class="cls-31" points="202.49 157.24 202.06 157.56 203.94 167.16 212.35 169.86 212.78 169.55 211.32 158.99 202.49 157.24"/><polygon class="cls-32" points="202.06 157.56 203.51 167.48 212.35 169.86 210.89 159.31 202.06 157.56"/><path class="cls-31" d="M885.76,222.82l-6.1-1.33a.23.23,0,0,1-.17-.27.22.22,0,0,1,.26-.17l6.1,1.33a.23.23,0,0,1,.17.27A.22.22,0,0,1,885.76,222.82Z" transform="translate(-676.08 -62.13)"/><path class="cls-31" d="M886,224.45l-6.1-1.33a.23.23,0,0,1-.17-.26.23.23,0,0,1,.27-.17l6.1,1.33a.22.22,0,0,1,.17.26A.24.24,0,0,1,886,224.45Z" transform="translate(-676.08 -62.13)"/><path class="cls-31" d="M886.21,226.18l-6.1-1.33a.23.23,0,0,1-.17-.27.22.22,0,0,1,.26-.17l6.1,1.33a.23.23,0,0,1,.17.27A.22.22,0,0,1,886.21,226.18Z" transform="translate(-676.08 -62.13)"/><path class="cls-33" d="M878.42,228.71a20.47,20.47,0,0,1-.6-4.67,5.34,5.34,0,0,1,2.37-3.53c.63-.22-.33,1.54-.74,2.33s-.59,1.47.44.58a6.89,6.89,0,0,1,3-1.36c.22,0,.56.63-1.23,1.62-1.4.77-1.6,1.47-1.6,1.47a21.42,21.42,0,0,1,2.74-1.68c1.28-.61.54.61-1.23,2.1-1,.8-.66.77-.66.77a20.23,20.23,0,0,1,2.35-1.69c.61,0-.33,1-1.58,2.32s-.78,2.74-1.11,3.14S879.08,229.85,878.42,228.71Z" transform="translate(-676.08 -62.13)"/><path class="cls-30" d="M885.66,220.41a.79.79,0,0,0-.28.71c0,.54.34,1.38.14,1.81-.09.18-.17.23-.23.22a.24.24,0,0,0-.27.26c0,.08.07.15.22.16.46,0,.66-.26.68-.78a13.6,13.6,0,0,1,.08-1.94C886.09,220.6,886.09,220.12,885.66,220.41Z" transform="translate(-676.08 -62.13)"/></g><circle class="cls-12" cx="310.42" cy="149.37" r="19.5"/><g class="cls-34"><path class="cls-18" d="M945.94,256.46c-1-.46-1.49.61-1.49.61s-.92,3.1,0,3.21a1.94,1.94,0,0,0,2-1.14c.24-.4.46-2.22-.49-2.68Z" transform="translate(-676.08 -62.13)"/><path class="cls-18" d="M931.8,256.71c-.95.46-.73,2.28-.49,2.67a1.93,1.93,0,0,0,2,1.15c.91-.11,0-3.21,0-3.21s-.55-1.07-1.5-.61Z" transform="translate(-676.08 -62.13)"/><path class="cls-25" d="M936,267.35a17.81,17.81,0,0,1-3.51,1.15,4.84,4.84,0,0,0-3.64,2.1c-1,1.45-1,1.31-1,1.31s1.27,2.66,5.88,3.84,13.66.71,18.08-3.1c0,0-1.15-3.4-3.56-4.15a15.51,15.51,0,0,0-4.72-.63Z" transform="translate(-676.08 -62.13)"/><path class="cls-21" d="M936.48,264.09a6.33,6.33,0,0,1-.23,2.45,2.79,2.79,0,0,1-.83,1.13l4.52,3.23s2.84-2.32,2.65-3.57a1.06,1.06,0,0,1-.45-.67c0-.4,0-2.87,0-2.87Z" transform="translate(-676.08 -62.13)"/><path class="cls-35" d="M943.28,266.93c-.82-.5-1.15-.41-1.15-.41a.89.89,0,0,0,.45.81,2,2,0,0,1-.64,1.37c-.7.75-1.87,1.24-2,2.2,0-.17-.15-.48-.84-.84-1-.54-3.51-2.43-2.79-3.72,0,0-.8.17-1.26,1.41a5.11,5.11,0,0,0-.28,1.73,2.27,2.27,0,0,0,1,1.76,14.53,14.53,0,0,1,1.83,2.25s.86-2.94,1.32-2.9a3.17,3.17,0,0,1,1,.31,1.86,1.86,0,0,0,.62-.31c.78-.51,1.33-.54,1.69,0a23.81,23.81,0,0,1,1.11,2.27s.4-2.48.59-3.26.15-2.17-.67-2.67Z" transform="translate(-676.08 -62.13)"/><path class="cls-23" d="M938.3,251.53s-3.63-.15-4.58,2.07a10.85,10.85,0,0,0-.42,6.11c.26,1.1,1.56,3.88,3.32,4.89a6,6,0,0,0,5,0c1.35-.77,1.87-2,2.45-4s1.91-6.41-.42-7.9a9.25,9.25,0,0,0-5.35-1.15Z" transform="translate(-676.08 -62.13)"/><path class="cls-24" d="M942.58,252.34a2,2,0,0,1,1.78,1.38,15.69,15.69,0,0,1,.5,3.47c0,.14.54-.61.73-1.08.71-1.71.34-4.69-.69-5.19s-2.32,1.42-2.32,1.42Z" transform="translate(-676.08 -62.13)"/><path class="cls-25" d="M933.1,256.11c.14-1.25.82-3.81,2.76-4.16s6.23,1,7.49.39,2.78-2.14,1.55-4.43a1.73,1.73,0,0,1-1.81.9,2.52,2.52,0,0,0,1.2-1c.39-.69.31-1,.31-1s-.53.6-2.52,0-5.39-1-7.6,1.33-2.64,4.12-2.67,5.59a4.79,4.79,0,0,0,1.05,3.18c.23.17.22-.61.24-.83Z" transform="translate(-676.08 -62.13)"/><path class="cls-26" d="M939.29,262.41a3.44,3.44,0,0,1-2-.66l-.17-.13a.23.23,0,0,1,.28-.36l.16.12a3,3,0,0,0,1.84.57,3,3,0,0,0,1.8-.67.23.23,0,0,1,.29.36,3.5,3.5,0,0,1-2.08.77Z" transform="translate(-676.08 -62.13)"/><path class="cls-27" d="M936.82,256.41h-1.16a.61.61,0,1,0,0,1.21h1.16a.61.61,0,0,0,0-1.21Z" transform="translate(-676.08 -62.13)"/><path class="cls-28" d="M936.82,256.94a.56.56,0,0,0-1.12,0,.56.56,0,0,0,1.12,0Z" transform="translate(-676.08 -62.13)"/><path class="cls-27" d="M942.47,256.57l-1.16-.05a.61.61,0,0,0-.64.58.62.62,0,0,0,.58.63l1.16,0a.61.61,0,0,0,.06-1.21Z" transform="translate(-676.08 -62.13)"/><path class="cls-28" d="M942.45,257.08a.55.55,0,0,0-.54-.55.53.53,0,1,0,0,1.05.55.55,0,0,0,.59-.5Z" transform="translate(-676.08 -62.13)"/><path class="cls-25" d="M937.4,254.58h-2.13a.51.51,0,0,0,0,1h2.13a.51.51,0,0,0,0-1Z" transform="translate(-676.08 -62.13)"/><path class="cls-25" d="M943.22,254.85l-2.14-.1a.5.5,0,1,0,0,1l2.13.1a.5.5,0,0,0,.05-1Z" transform="translate(-676.08 -62.13)"/><path class="cls-29" d="M940.15,259.63c0-.55-.5-1.26-.91-1.26s-.85.67-.85,1.21a.77.77,0,0,0,.85.76c.41,0,.91-.17.91-.71Z" transform="translate(-676.08 -62.13)"/><path class="cls-27" d="M936.31,256.45l-.16.11a.08.08,0,0,0,0,.12.08.08,0,0,0,.12,0l.15-.11a.09.09,0,0,0,0-.12.11.11,0,0,0-.12,0Z" transform="translate(-676.08 -62.13)"/><path class="cls-27" d="M942,256.57l-.15.1a.1.1,0,0,0,0,.12.08.08,0,0,0,.12,0l.16-.1a.09.09,0,1,0-.1-.14Z" transform="translate(-676.08 -62.13)"/><path class="cls-36" d="M946.2,275.4c-.39-2.41-1.41-7.5-1.41-7.5A8.64,8.64,0,0,1,946,268c.51,2.41,1.32,7,1.32,7A6.09,6.09,0,0,1,946.2,275.4Z" transform="translate(-676.08 -62.13)"/><path class="cls-36" d="M932.91,275.52c.39-2.41,1.4-7.51,1.4-7.51l-1.24.37c-.52,2.42-1.27,6.73-1.27,6.73A9.22,9.22,0,0,0,932.91,275.52Z" transform="translate(-676.08 -62.13)"/><path class="cls-37" d="M930.74,280.55a1.24,1.24,0,0,1-.27,0c-.84-.16-1.47-1.06-1.75-2.51a12.93,12.93,0,0,1,.12-4.85c.75-3.8,2.64-6.52,4.3-6.2s2.38,3.56,1.63,7.37C934.06,277.92,932.34,280.55,930.74,280.55Zm2.13-13c-1.11,0-2.71,2.24-3.4,5.7a12.45,12.45,0,0,0-.12,4.6c.23,1.17.68,1.9,1.25,2,1.1.22,2.82-2.07,3.54-5.69s0-6.39-1.13-6.6Z" transform="translate(-676.08 -62.13)"/><path class="cls-38" d="M930,281l-.27,0c-.85-.16-1.47-1.06-1.76-2.51a12.94,12.94,0,0,1,.13-4.85c.74-3.8,2.63-6.52,4.29-6.2s2.38,3.56,1.64,7.37C933.35,278.33,931.62,281,930,281Zm2.12-13c-1.1,0-2.71,2.24-3.39,5.7a12.24,12.24,0,0,0-.12,4.6c.23,1.17.68,1.9,1.24,2,1.11.22,2.83-2.07,3.54-5.69s0-6.39-1.12-6.6Z" transform="translate(-676.08 -62.13)"/><path class="cls-39" d="M930,281l-.27,0c-.85-.16-1.47-1.06-1.76-2.51a13,13,0,0,1,.13-4.85c.74-3.8,2.63-6.52,4.29-6.2s2.38,3.56,1.63,7.37C933.35,278.33,931.62,281,930,281Zm2.12-13c-1.1,0-2.71,2.24-3.39,5.7a12.24,12.24,0,0,0-.12,4.6c.22,1.17.68,1.9,1.24,2,1.11.22,2.83-2.07,3.54-5.69s0-6.39-1.12-6.6Z" transform="translate(-676.08 -62.13)"/><path class="cls-38" d="M929.57,281.19a1.23,1.23,0,0,1-.27,0c-.85-.17-1.47-1.06-1.76-2.52a13,13,0,0,1,.13-4.85c.74-3.8,2.63-6.52,4.29-6.19s2.38,3.56,1.63,7.36C932.89,278.57,931.16,281.19,929.57,281.19Zm2.12-13c-1.1,0-2.71,2.24-3.39,5.7a12.24,12.24,0,0,0-.12,4.6c.23,1.16.68,1.89,1.24,2,1.11.22,2.83-2.06,3.54-5.68s0-6.39-1.12-6.61Z" transform="translate(-676.08 -62.13)"/><path class="cls-25" d="M931.89,268.61a3.88,3.88,0,0,0-3,2c-1,1.45-1,1.31-1,1.31s-.25,1.68,3.65,3.06C932,275.16,932.81,268.44,931.89,268.61Z" transform="translate(-676.08 -62.13)"/></g><g class="cls-40"><path class="cls-18" d="M979.13,211.48c1.08-.52,1.69.69,1.69.69s1,3.5,0,3.63a2.2,2.2,0,0,1-2.24-1.29c-.27-.45-.52-2.51.55-3Z" transform="translate(-676.08 -62.13)"/><path class="cls-18" d="M995.13,211.53c1.08.52.83,2.58.56,3a2.19,2.19,0,0,1-2.25,1.29c-1-.13,0-3.63,0-3.63s.62-1.21,1.69-.69Z" transform="translate(-676.08 -62.13)"/><path class="cls-41" d="M990.4,223.8a19.93,19.93,0,0,0,4,1.31,5.45,5.45,0,0,1,4.11,2.37c1.15,1.65,1.15,1.48,1.15,1.48s-1.44,3-6.66,4.35-15.11,1.62-20-4.39a7.52,7.52,0,0,1,4-3.62,20,20,0,0,1,4.88-.91Z" transform="translate(-676.08 -62.13)"/><path class="cls-42" d="M998.48,227.48c1,1.46,1.13,1.5,1.15,1.49s-2.27,5.13-12.4,5.13l2-10.78a33.84,33.84,0,0,0,5.13,1.71A5.55,5.55,0,0,1,998.48,227.48Z" transform="translate(-676.08 -62.13)"/><path class="cls-32" d="M974,227.25a5.51,5.51,0,0,1,4.11-2.37,41.3,41.3,0,0,0,4.86-1.31l9.8,2.34-.47,7.69c-15,2.55-19.41-4.79-19.45-4.86S972.93,228.72,974,227.25Z" transform="translate(-676.08 -62.13)"/><path class="cls-21" d="M989.85,220.11a7.06,7.06,0,0,0,.25,2.77,3.06,3.06,0,0,0,.94,1.28l-1.82.91c-1.66-.31-6.3-1.5-6.3-1.5a.69.69,0,0,0,.52-.55c0-.45,0-3.24,0-3.24Z" transform="translate(-676.08 -62.13)"/><path class="cls-23" d="M987.78,205.9s4.11-.17,5.19,2.34a12.28,12.28,0,0,1,.47,6.91,10.42,10.42,0,0,1-4,5.32,5.76,5.76,0,0,1-5.41.06,7.56,7.56,0,0,1-2.81-4.39c-.64-2.28-2.16-7.25.48-8.94a10.42,10.42,0,0,1,6-1.3Z" transform="translate(-676.08 -62.13)"/><path class="cls-24" d="M982.94,206.81a2.27,2.27,0,0,0-2,1.57,17.92,17.92,0,0,0-.57,3.92c0,.16-.6-.68-.82-1.22a3.2,3.2,0,0,1-.4-1.91c.41-1.75.35-3.56,1.18-4,1.16-.56,2.63,1.6,2.63,1.6Z" transform="translate(-676.08 -62.13)"/><path class="cls-25" d="M993.66,211.08c-.15-1.41-.92-4.31-3.12-4.7s-7,1.17-8.47.43-3.15-2.42-1.76-5a2,2,0,0,0,2.05,1,2.78,2.78,0,0,1-1.36-1.11c-.44-.78-.35-1.12-.35-1.12s.6.68,2.85,0,6.1-1.12,8.6,1.51,2.28,5.49,2.78,7.07a4.52,4.52,0,0,1-.94,2.85c-.26.19-.25-.69-.28-.94Z" transform="translate(-676.08 -62.13)"/><path class="cls-26" d="M986.66,218.21a4,4,0,0,0,2.3-.74l.19-.15a.27.27,0,0,0,.05-.36.28.28,0,0,0-.37-.05l-.18.14a3.44,3.44,0,0,1-2.08.64,3.4,3.4,0,0,1-2-.76.26.26,0,0,0-.36,0,.27.27,0,0,0,0,.37,3.91,3.91,0,0,0,2.36.87Z" transform="translate(-676.08 -62.13)"/><path class="cls-27" d="M989.46,211.42h1.31a.69.69,0,1,1,0,1.37h-1.31a.69.69,0,1,1,0-1.37Z" transform="translate(-676.08 -62.13)"/><path class="cls-28" d="M989.37,212.11a.62.62,0,0,1,.64-.6.6.6,0,1,1,0,1.2.62.62,0,0,1-.64-.6Z" transform="translate(-676.08 -62.13)"/><path class="cls-27" d="M983.07,211.6l1.31-.06a.69.69,0,0,1,.06,1.38l-1.31.06a.69.69,0,1,1-.06-1.38Z" transform="translate(-676.08 -62.13)"/><path class="cls-28" d="M983,212.27a.63.63,0,1,1,.66.57.61.61,0,0,1-.66-.57Z" transform="translate(-676.08 -62.13)"/><path class="cls-25" d="M988.8,209.36h2.41a.57.57,0,1,1,0,1.13H988.8a.57.57,0,1,1,0-1.13Z" transform="translate(-676.08 -62.13)"/><path class="cls-25" d="M982.22,209.65l2.41-.11a.57.57,0,0,1,0,1.14l-2.41.11a.57.57,0,1,1,0-1.14Z" transform="translate(-676.08 -62.13)"/><path class="cls-29" d="M985.68,215.06c0-.62.57-1.42,1-1.42s1,.76,1,1.37a.86.86,0,0,1-1,.86c-.46,0-1-.19-1-.81Z" transform="translate(-676.08 -62.13)"/><path class="cls-27" d="M989.85,211.7l.17.12a.09.09,0,0,1,0,.13.09.09,0,0,1-.13,0l-.17-.12a.1.1,0,0,1,0-.14A.11.11,0,0,1,989.85,211.7Z" transform="translate(-676.08 -62.13)"/><path class="cls-27" d="M983.31,211.85a.11.11,0,0,1,.14,0l.17.12a.09.09,0,0,1,0,.13.1.1,0,0,1-.14,0l-.17-.12A.1.1,0,0,1,983.31,211.85Z" transform="translate(-676.08 -62.13)"/><path class="cls-28" d="M990.92,226.77a.53.53,0,0,1,.53-.53.53.53,0,0,1,0,1.06A.53.53,0,0,1,990.92,226.77Z" transform="translate(-676.08 -62.13)"/><path class="cls-28" d="M991,232.32a.53.53,0,0,1,.53.53.53.53,0,0,1-1.06,0A.53.53,0,0,1,991,232.32Z" transform="translate(-676.08 -62.13)"/><path class="cls-43" d="M986.89,228.41a5.19,5.19,0,0,0-1.82,2.92c-.42,1.94.32,4.25.23,4.74s-.36,1.29-.36,1.29a1.91,1.91,0,0,0,1.52-1.09c.62-1.09,1.33-7.15,1.15-7.63S986.89,228.41,986.89,228.41Z" transform="translate(-676.08 -62.13)"/><path class="cls-44" d="M987.23,226.24c.09,0,1.38-.37,1.41.53s-.38,2-1,2.18a2.29,2.29,0,0,1-1.6-.09C985.82,228.66,984.34,225.09,987.23,226.24Z" transform="translate(-676.08 -62.13)"/><path class="cls-43" d="M989.88,222.43c0-.08,2.35.6,2.84,1.37s-1.17,2.2-3,3.32-5.94-.12-7.41-1.76.41-4.12,1.18-3.09C985.39,224.84,990.11,226.07,989.88,222.43Z" transform="translate(-676.08 -62.13)"/><path class="cls-44" d="M989.88,222.43c0-.08,2.09,1.74.23,2.85s-6.36,1.72-7.83.08.41-4.12,1.18-3.09C985.39,224.84,990.11,226.07,989.88,222.43Z" transform="translate(-676.08 -62.13)"/><path class="cls-44" d="M987.78,228.51a5.15,5.15,0,0,1,1.81,2.93c.43,1.93-.31,4.24-.22,4.74s.36,1.29.36,1.29a1.93,1.93,0,0,1-1.53-1.09c-.62-1.09-1.33-7.16-1.14-7.64S987.78,228.51,987.78,228.51Z" transform="translate(-676.08 -62.13)"/></g><g class="cls-45"><path class="cls-18" d="M897.91,254.69c-1-.5-1.63.67-1.63.67s-1,3.36,0,3.48a2.11,2.11,0,0,0,2.16-1.24c.26-.43.5-2.41-.53-2.91Z" transform="translate(-676.08 -62.13)"/><path class="cls-18" d="M882.54,254.74c-1,.5-.8,2.48-.54,2.9a2.1,2.1,0,0,0,2.16,1.25c1-.12,0-3.49,0-3.49s-.59-1.16-1.62-.66Z" transform="translate(-676.08 -62.13)"/><path class="cls-19" d="M887.09,266.52a19.12,19.12,0,0,1-3.82,1.26,5.26,5.26,0,0,0-3.95,2.28c-1.1,1.58-1.1,1.43-1.1,1.43s1.38,2.89,6.39,4.17,14.36,1.59,19.07-4.18A6.64,6.64,0,0,0,900,268a19.53,19.53,0,0,0-4.69-.87Z" transform="translate(-676.08 -62.13)"/><path class="cls-28" d="M879.32,270c-1,1.41-1.09,1.44-1.1,1.43s2.18,4.93,11.91,4.93l-3-9.89a21.66,21.66,0,0,1-3.83,1.18A5.35,5.35,0,0,0,879.32,270Z" transform="translate(-676.08 -62.13)"/><path class="cls-28" d="M902.89,269.84a5.25,5.25,0,0,0-4-2.27,19.19,19.19,0,0,1-3.81-1.26l-2.77,10.11c8.45-.32,12.39.08,12-2.53C904.91,275.12,903.86,271.25,902.89,269.84Z" transform="translate(-676.08 -62.13)"/><path class="cls-46" d="M898,269.75a28,28,0,0,1-3-3.23l-2.71,9.9a30.36,30.36,0,0,0,3-.35s2.81-2.14,2.48-2.35-3.06-1.85-3.06-1.85S898.59,270,898,269.75Z" transform="translate(-676.08 -62.13)"/><path class="cls-46" d="M884.36,269.75c-.55.26,2.74,2.18,2.74,2.18s-2.15,1.91-2.48,2.13,2.54,2.18,2.54,2.18,2.11.17,3,.16l-2.79-9.88A28,28,0,0,1,884.36,269.75Z" transform="translate(-676.08 -62.13)"/><path class="cls-28" d="M892.75,272.56a10.78,10.78,0,0,0,.42-1.83c1.71-1.81,1.37-2.73,1-2.69-.75.1-.76,1-1.31,1.53s-1.32,1.63-3.07.55c-.14-.08-.5-.44-.51-.42a5.1,5.1,0,0,1-1.66-1.23,8.32,8.32,0,0,0,1.55,2.37,10.6,10.6,0,0,0,.37,1.66c.26.68.63.58.63.58L890,276.4s2.53.05,2.52,0c-.23-2-.26-3.42-.26-3.42a.73.73,0,0,0,.45-.43Z" transform="translate(-676.08 -62.13)"/><path class="cls-21" d="M887.62,263a7,7,0,0,1-.25,2.67,3,3,0,0,1-.9,1.23l4.91,3.5s3.09-2.52,2.88-3.87a1.21,1.21,0,0,1-.49-.73c0-.44,0-3.12,0-3.12Z" transform="translate(-676.08 -62.13)"/><path class="cls-22" d="M895,266.07c-.9-.54-1.26-.44-1.26-.44a1,1,0,0,0,.49.88,2.12,2.12,0,0,1-.7,1.49c-.75.81-2,1.35-2.17,2.38,0-.18-.16-.52-.91-.91-1.12-.58-3.81-2.64-3-4,0,0-.87.18-1.37,1.53a6.86,6.86,0,0,0,.66,3.56c.36.74,1.22,2.12,1.22,2.12s.71-2.82,1.75-2.79a7.45,7.45,0,0,1,1.68.54,2,2,0,0,0,.68-.34c.84-.56,1.44-.59,1.84,0a24.92,24.92,0,0,1,1.2,2.47s.44-2.7.64-3.55.17-2.36-.72-2.9Z" transform="translate(-676.08 -62.13)"/><path class="cls-23" d="M889.6,249.33s-4-.16-5,2.25a11.86,11.86,0,0,0-.46,6.64,10.08,10.08,0,0,0,3.81,5.11,5.51,5.51,0,0,0,5.2.05,7.2,7.2,0,0,0,2.7-4.21c.62-2.2,2.07-7-.46-8.59a10,10,0,0,0-5.81-1.25Z" transform="translate(-676.08 -62.13)"/><path class="cls-24" d="M894.25,250.2a2.18,2.18,0,0,1,1.94,1.51,16.84,16.84,0,0,1,.54,3.77c0,.15.59-.66.8-1.17.76-1.86.36-5.1-.75-5.64s-2.53,1.53-2.53,1.53Z" transform="translate(-676.08 -62.13)"/><path class="cls-25" d="M884,254.31c.15-1.36.88-4.15,3-4.52s6.77,1.12,8.14.42,3-2.33,1.69-4.82a1.89,1.89,0,0,1-2,1,2.72,2.72,0,0,0,1.31-1.07c.41-.75.33-1.07.33-1.07s-.58.65-2.74,0-5.86-1.08-8.26,1.45-2.87,4.48-2.91,6.07a5.24,5.24,0,0,0,1.14,3.46c.25.18.24-.67.27-.9Z" transform="translate(-676.08 -62.13)"/><path class="cls-26" d="M890.67,261.16a3.74,3.74,0,0,1-2.2-.72l-.19-.14a.25.25,0,0,1,.31-.39l.17.13a3.24,3.24,0,0,0,4-.11.24.24,0,0,1,.35,0,.25.25,0,0,1,0,.35,3.8,3.8,0,0,1-2.27.83Z" transform="translate(-676.08 -62.13)"/><path class="cls-27" d="M888,254.63h-1.26a.66.66,0,1,0,0,1.32H888a.66.66,0,0,0,0-1.32Z" transform="translate(-676.08 -62.13)"/><path class="cls-28" d="M888,255.25a.61.61,0,0,0-1.21,0,.61.61,0,0,0,1.21,0Z" transform="translate(-676.08 -62.13)"/><path class="cls-27" d="M894.13,254.81l-1.26-.06a.67.67,0,0,0-.69.63.67.67,0,0,0,.63.69l1.26.06a.66.66,0,1,0,.06-1.32Z" transform="translate(-676.08 -62.13)"/><path class="cls-28" d="M894.12,255.41a.61.61,0,0,0-1.22-.06.61.61,0,0,0,1.22.06Z" transform="translate(-676.08 -62.13)"/><path class="cls-25" d="M888.62,252.65H886.3a.54.54,0,0,0-.54.54.55.55,0,0,0,.54.55h2.32a.55.55,0,0,0,.55-.55.55.55,0,0,0-.55-.54Z" transform="translate(-676.08 -62.13)"/><path class="cls-25" d="M894.94,252.94l-2.31-.11a.55.55,0,0,0-.57.52.54.54,0,0,0,.52.57l2.32.11a.55.55,0,0,0,0-1.09Z" transform="translate(-676.08 -62.13)"/><path class="cls-29" d="M891.61,258.13c0-.59-.54-1.37-1-1.37s-.93.73-.93,1.32a.83.83,0,0,0,.93.83c.44,0,1-.19,1-.78Z" transform="translate(-676.08 -62.13)"/><path class="cls-27" d="M887.62,254.88l-.17.12a.09.09,0,0,0,0,.13.09.09,0,0,0,.13,0l.17-.12a.09.09,0,0,0,0-.13.09.09,0,0,0-.13,0Z" transform="translate(-676.08 -62.13)"/><path class="cls-27" d="M893.77,255l-.17.11a.09.09,0,0,0,0,.13.09.09,0,0,0,.13,0l.16-.11a.1.1,0,0,0,0-.13.09.09,0,0,0-.13,0Z" transform="translate(-676.08 -62.13)"/><polygon class="cls-19" points="206.8 203.45 208 203.58 209.77 214.02 209.49 214.13 208.38 212.93 206.8 203.45"/><path class="cls-28" d="M896.85,254.87a1.19,1.19,0,0,0-.06-.29c0-.17-.21-.19-.9-.24-.41,0-1-.05-1.49-.07h0a8.16,8.16,0,0,0-2.48.25,1.74,1.74,0,0,0-.86.54.43.43,0,0,1,0,0,1.55,1.55,0,0,1-.67.06l-.18,0a.15.15,0,0,0,0-.07,1.71,1.71,0,0,0-.85-.56,8.32,8.32,0,0,0-2.48-.27h0l-1.49.05c-.68,0-.85.07-.91.23s0,.17-.06.29,0,.36.21.43h.05c.12,0,.14.06.15.09s0,.12,0,.22a5.59,5.59,0,0,0,.38,1.38.65.65,0,0,1,.09.16,1.24,1.24,0,0,0,.72.66,4.09,4.09,0,0,0,1.42.26,2.68,2.68,0,0,0,.64-.06,2,2,0,0,0,1.5-1.09c.06-.16.14-.39.22-.64s.18-.5.25-.71l.29.06h.27a1.65,1.65,0,0,0,.6-.08l.24.73c.09.25.16.49.22.65A2,2,0,0,0,893.1,258a3.47,3.47,0,0,0,.64.06,4,4,0,0,0,1.43-.24,1.23,1.23,0,0,0,.72-.65L896,257a5.81,5.81,0,0,0,.41-1.38,1.72,1.72,0,0,0,0-.21s0-.06.16-.09h0C896.88,255.23,896.86,255,896.85,254.87Zm-7.54,1.22-.22.63a1.59,1.59,0,0,1-1.17.83,3.41,3.41,0,0,1-1.76-.18.78.78,0,0,1-.48-.46l-.11-.18a6.39,6.39,0,0,1-.33-1.26c0-.11,0-.19,0-.23a.54.54,0,0,0-.41-.37l0-.15c.31,0,1.27-.07,2-.1h0a7.59,7.59,0,0,1,2.31.26,1.37,1.37,0,0,1,.5.27C889.58,255.3,889.48,255.58,889.31,256.09Zm6.67-.78s0,.12-.05.23a6.74,6.74,0,0,1-.35,1.25,1.74,1.74,0,0,0-.11.18.8.8,0,0,1-.49.46,3.42,3.42,0,0,1-1.76.15,1.59,1.59,0,0,1-1.16-.84c0-.15-.13-.38-.21-.63-.17-.51-.27-.8-.33-1a1.6,1.6,0,0,1,.51-.27,8,8,0,0,1,2.31-.22h0c.72,0,1.67.08,2,.12a.89.89,0,0,1,0,.15A.54.54,0,0,0,896,255.31Z" transform="translate(-676.08 -62.13)"/><path class="cls-47" d="M883.71,265.43c-.23-.1-8.23-.66-8.23-.66l2.15,10.66,7.94.83Z" transform="translate(-676.08 -62.13)"/><path class="cls-19" d="M876.85,265.44l5.61.49s-.17-.58,0-.63h.19a.18.18,0,0,0-.12-.17c-.13,0-5.51-.46-5.63-.37S876.85,265.44,876.85,265.44Z" transform="translate(-676.08 -62.13)"/><path class="cls-33" d="M876.08,274.66a21.73,21.73,0,0,1-.64-5,5.75,5.75,0,0,1,2.55-3.8c.67-.24-.36,1.66-.8,2.5s-.63,1.58.48.64a7.3,7.3,0,0,1,3.17-1.47c.24,0,.61.68-1.32,1.74-1.51.83-1.72,1.58-1.72,1.58a22.43,22.43,0,0,1,3-1.8c1.38-.66.58.65-1.33,2.26-1,.86-.71.83-.71.83a22.84,22.84,0,0,1,2.53-1.83c.66,0-.35,1.12-1.7,2.51s-.84,2.94-1.19,3.38S876.8,275.89,876.08,274.66Z" transform="translate(-676.08 -62.13)"/></g><g class="cls-48"><path class="cls-18" d="M945.33,210.62c-1-.48-1.54.63-1.54.63s-.95,3.2,0,3.32a2,2,0,0,0,2.05-1.19c.25-.41.48-2.29-.51-2.76Z" transform="translate(-676.08 -62.13)"/><path class="cls-18" d="M930.77,210.66c-1,.47-.76,2.36-.51,2.77a2,2,0,0,0,2,1.18c1-.12,0-3.32,0-3.32s-.56-1.1-1.54-.63Z" transform="translate(-676.08 -62.13)"/><path class="cls-49" d="M935,221.88a18.31,18.31,0,0,1-3.63,1.2,5,5,0,0,0-3.77,2.17,9.66,9.66,0,0,1-1.36,1.74s1.63,2.37,6.41,3.59,13.51,1.07,18.25-3.45c0,0-1.17-3.11-3.66-3.88a18.67,18.67,0,0,0-4.46-.83Z" transform="translate(-676.08 -62.13)"/><path class="cls-42" d="M927.63,225.25a11,11,0,0,1-1.31,1.69c0,.06,2.34,4.36,11.61,4.36l-2.9-9.42a20.3,20.3,0,0,1-3.64,1.13A5.07,5.07,0,0,0,927.63,225.25Z" transform="translate(-676.08 -62.13)"/><path class="cls-42" d="M950.07,225a5,5,0,0,0-3.76-2.17,18.54,18.54,0,0,1-3.63-1.19L940,231.3c8.05-.3,11.21-3.59,11.24-3.66A8.3,8.3,0,0,0,950.07,225Z" transform="translate(-676.08 -62.13)"/><path class="cls-32" d="M945.46,225a27.29,27.29,0,0,1-2.84-3.07L940,231.3a26.48,26.48,0,0,0,2.9-.33s2.09-1.11,1.77-1.32-2.38-2-2.38-2S946,225.2,945.46,225Z" transform="translate(-676.08 -62.13)"/><path class="cls-32" d="M932.44,225c-.52.25,3.12,2.75,3.12,2.75s-2.06,1.75-2.37,2,1.91,1.48,1.91,1.48,2,.18,2.83.17l-2.66-9.42A27.08,27.08,0,0,1,932.44,225Z" transform="translate(-676.08 -62.13)"/><path class="cls-42" d="M943.53,231.18a1.3,1.3,0,1,0,1.13,1.44A1.29,1.29,0,0,0,943.53,231.18Z" transform="translate(-676.08 -62.13)"/><path class="cls-42" d="M933.2,234.6a.41.41,0,0,0-.76.33l.34.78a.41.41,0,0,0,.75-.33Z" transform="translate(-676.08 -62.13)"/><path class="cls-42" d="M937.7,235.19l-.2-.82a.42.42,0,0,0-.5-.3.42.42,0,0,0-.3.5l.2.82a.41.41,0,0,0,.5.3A.41.41,0,0,0,937.7,235.19Z" transform="translate(-676.08 -62.13)"/><path class="cls-21" d="M935.54,218.51a6.4,6.4,0,0,1-.24,2.53,2.84,2.84,0,0,1-.86,1.18l4.68,3.34s2.94-2.41,2.74-3.7a1.1,1.1,0,0,1-.46-.69c0-.42,0-3,0-3Z" transform="translate(-676.08 -62.13)"/><path class="cls-22" d="M942.58,221.45c-.85-.52-1.19-.42-1.19-.42a.92.92,0,0,0,.46.83,2,2,0,0,1-.66,1.42c-.72.77-1.93,1.29-2.07,2.28,0-.18-.15-.5-.87-.87-1.06-.56-3.63-2.51-2.88-3.85,0,0-.83.17-1.31,1.45a6.54,6.54,0,0,0,.63,3.4c.34.7,1.16,2,1.16,2s.68-2.68,1.67-2.65a7.13,7.13,0,0,1,1.6.51,1.82,1.82,0,0,0,.64-.33c.81-.52,1.38-.55,1.75,0a23,23,0,0,1,1.15,2.36s.42-2.57.61-3.38.16-2.24-.69-2.76Z" transform="translate(-676.08 -62.13)"/><path class="cls-23" d="M937.42,205.51s-3.75-.15-4.74,2.14a11.35,11.35,0,0,0-.44,6.32,9.66,9.66,0,0,0,3.63,4.87,5.29,5.29,0,0,0,5,0,6.9,6.9,0,0,0,2.56-4c.6-2.09,2-6.64-.43-8.18a9.6,9.6,0,0,0-5.54-1.19Z" transform="translate(-676.08 -62.13)"/><path class="cls-24" d="M941.85,206.34a2.08,2.08,0,0,1,1.85,1.44,16.83,16.83,0,0,1,.52,3.58c0,.15.55-.62.75-1.11.73-1.77.35-4.85-.71-5.37s-2.41,1.46-2.41,1.46Z" transform="translate(-676.08 -62.13)"/><path class="cls-25" d="M932.05,210.25c.13-1.29.84-3.95,2.85-4.3s6.45,1.07,7.75.4,2.88-2.22,1.61-4.59a1.78,1.78,0,0,1-1.88.93,2.58,2.58,0,0,0,1.25-1c.39-.72.32-1,.32-1s-.56.63-2.61,0-5.58-1-7.87,1.38-2.73,4.27-2.77,5.78a5,5,0,0,0,1.09,3.3c.24.17.23-.64.26-.86Z" transform="translate(-676.08 -62.13)"/><path class="cls-26" d="M938.44,216.77a3.6,3.6,0,0,1-2.09-.68l-.18-.13a.24.24,0,0,1,0-.33.23.23,0,0,1,.33,0l.17.13a3.12,3.12,0,0,0,3.77-.11.24.24,0,0,1,.3.37,3.63,3.63,0,0,1-2.16.8Z" transform="translate(-676.08 -62.13)"/><path class="cls-27" d="M935.89,210.56h-1.2a.63.63,0,1,0,0,1.25h1.2a.63.63,0,1,0,0-1.25Z" transform="translate(-676.08 -62.13)"/><path class="cls-28" d="M935.68,211.09a.56.56,0,0,0-.58-.55.55.55,0,0,0-.57.55.56.56,0,0,0,.57.55.57.57,0,0,0,.58-.55Z" transform="translate(-676.08 -62.13)"/><path class="cls-27" d="M941.74,210.73l-1.2-.06a.63.63,0,1,0-.06,1.26l1.2,0a.63.63,0,0,0,.06-1.25Z" transform="translate(-676.08 -62.13)"/><path class="cls-28" d="M941.5,211.24a.58.58,0,0,0-1.15-.06.58.58,0,0,0,1.15.06Z" transform="translate(-676.08 -62.13)"/><path class="cls-25" d="M936.49,208.67h-2.2a.52.52,0,0,0-.52.52.52.52,0,0,0,.52.52h2.2a.52.52,0,0,0,.52-.52.52.52,0,0,0-.52-.52Z" transform="translate(-676.08 -62.13)"/><path class="cls-25" d="M942.51,208.94l-2.2-.1a.53.53,0,0,0-.55.5.52.52,0,0,0,.5.54l2.21.1a.52.52,0,1,0,0-1Z" transform="translate(-676.08 -62.13)"/><path class="cls-29" d="M939.34,213.89c0-.56-.52-1.3-.94-1.3s-.88.69-.88,1.26a.79.79,0,0,0,.88.78c.42,0,.94-.18.94-.74Z" transform="translate(-676.08 -62.13)"/><path class="cls-27" d="M935.32,210.73l-.16.11a.09.09,0,0,0,0,.13.08.08,0,0,0,.12,0l.16-.11a.08.08,0,0,0,0-.12.1.1,0,0,0-.12,0Z" transform="translate(-676.08 -62.13)"/><path class="cls-27" d="M941.17,210.85,941,211a.09.09,0,0,0,0,.13.08.08,0,0,0,.12,0l.16-.11a.08.08,0,0,0,0-.12.09.09,0,0,0-.12,0Z" transform="translate(-676.08 -62.13)"/><rect class="cls-50" x="945.35" y="226.72" width="4.04" height="2.38" transform="translate(-685.22 -20.11) rotate(-2.53)"/><path class="cls-51" d="M945.77,227.56l3.09-.13a.09.09,0,0,0,.06-.08.07.07,0,0,0-.07-.06l-3.08.14a.07.07,0,0,0-.07.07S945.74,227.56,945.77,227.56Z" transform="translate(-676.08 -62.13)"/><path class="cls-51" d="M948.86,227.93a.07.07,0,0,0,.06-.07.07.07,0,0,0-.07-.07l-3.08.14a.07.07,0,0,0-.07.07.08.08,0,0,0,.07.07Z" transform="translate(-676.08 -62.13)"/><path class="cls-51" d="M948.88,228.27l-3.08.13a.08.08,0,0,0-.07.08.09.09,0,0,0,.08.06l3.08-.14s.06,0,.06-.07A.07.07,0,0,0,948.88,228.27Z" transform="translate(-676.08 -62.13)"/></g><g class="cls-52"><path class="cls-18" d="M993.53,255.52c-1-.47-1.54.64-1.54.64s-1,3.2,0,3.32a2,2,0,0,0,2-1.19c.25-.41.48-2.29-.51-2.77Z" transform="translate(-676.08 -62.13)"/><path class="cls-18" d="M978.83,255.46c-1,.48-.76,2.36-.51,2.77a2,2,0,0,0,2.06,1.18c1-.11,0-3.32,0-3.32s-.56-1.1-1.55-.63Z" transform="translate(-676.08 -62.13)"/><path class="cls-53" d="M983.23,266.79a18.31,18.31,0,0,1-3.63,1.2,5,5,0,0,0-3.77,2.16c-1.05,1.51-1.05,1.36-1.05,1.36s1.32,2.76,6.09,4,13.83,1.49,18.31-4a6.9,6.9,0,0,0-3.71-3.32,18.67,18.67,0,0,0-4.46-.83Z" transform="translate(-676.08 -62.13)"/><path class="cls-53" d="M975.83,270.15c-.93,1.34-1,1.38-1,1.37s2.07,4.69,11.34,4.69l-2.9-9.42a20.3,20.3,0,0,1-3.64,1.13A5.09,5.09,0,0,0,975.83,270.15Z" transform="translate(-676.08 -62.13)"/><path class="cls-53" d="M998.27,270a5,5,0,0,0-3.76-2.17,18.31,18.31,0,0,1-3.63-1.2l-2.64,9.63c8-.3,11-4,11.08-4.07A6.08,6.08,0,0,0,998.27,270Z" transform="translate(-676.08 -62.13)"/><path class="cls-21" d="M983.73,263.42a6.52,6.52,0,0,1-.23,2.53,2.75,2.75,0,0,1-.86,1.17l4.68,3.35s2.94-2.41,2.74-3.7a1.14,1.14,0,0,1-.47-.69c0-.42,0-3,0-3Z" transform="translate(-676.08 -62.13)"/><path class="cls-54" d="M990.78,266.36c-.85-.52-1.2-.42-1.2-.42a.94.94,0,0,0,.47.83,2,2,0,0,1-.66,1.42c-.72.77-1.93,1.29-2.07,2.28,0-.18-.15-.5-.87-.87-1.07-.56-3.63-2.51-2.88-3.85,0,0-.83.17-1.31,1.45a6.54,6.54,0,0,0,.63,3.4c.34.7,1.16,2,1.16,2s.68-2.69,1.67-2.65a7.31,7.31,0,0,1,1.6.51,1.82,1.82,0,0,0,.64-.33c.8-.52,1.38-.55,1.75,0a23,23,0,0,1,1.15,2.36s.42-2.57.61-3.38.16-2.25-.69-2.76Z" transform="translate(-676.08 -62.13)"/><path class="cls-23" d="M985.62,250.42s-3.75-.16-4.74,2.14a11.35,11.35,0,0,0-.44,6.32,9.61,9.61,0,0,0,3.63,4.87,5.26,5.26,0,0,0,4.95.05,6.89,6.89,0,0,0,2.57-4c.59-2.09,2-6.64-.43-8.18a9.61,9.61,0,0,0-5.54-1.19Z" transform="translate(-676.08 -62.13)"/><path class="cls-24" d="M990.05,251.25a2.08,2.08,0,0,1,1.85,1.44,16.12,16.12,0,0,1,.51,3.58c0,.15.56-.62.76-1.11.73-1.77.1-4.78-1-5.29s-2.16,1.38-2.16,1.38Z" transform="translate(-676.08 -62.13)"/><path class="cls-25" d="M980.24,255.16c.14-1.29.85-3.95,2.86-4.3s6.45,1.06,7.75.39,2.88-2.21,1.61-4.58a1.81,1.81,0,0,1-1.88.93,2.56,2.56,0,0,0,1.25-1c.39-.71.31-1,.31-1s-.55.62-2.6,0-5.58-1-7.87,1.38a8.36,8.36,0,0,0-2.62,6A4.47,4.47,0,0,0,980,256c.23.17.23-.64.25-.86Z" transform="translate(-676.08 -62.13)"/><path class="cls-26" d="M986.64,261.68a3.57,3.57,0,0,1-2.09-.68l-.18-.13a.25.25,0,0,1,0-.34.24.24,0,0,1,.33,0l.17.13a3.12,3.12,0,0,0,1.9.58,3.06,3.06,0,0,0,1.86-.69.24.24,0,0,1,.34,0,.23.23,0,0,1,0,.33,3.58,3.58,0,0,1-2.15.8Z" transform="translate(-676.08 -62.13)"/><path class="cls-27" d="M984.09,255.47h-1.2a.63.63,0,1,0,0,1.25h1.2a.63.63,0,1,0,0-1.25Z" transform="translate(-676.08 -62.13)"/><path class="cls-28" d="M983.88,256a.58.58,0,1,0-.58.54.56.56,0,0,0,.58-.54Z" transform="translate(-676.08 -62.13)"/><path class="cls-27" d="M989.93,255.64l-1.19-.06a.63.63,0,0,0-.06,1.26l1.2.05a.63.63,0,0,0,0-1.25Z" transform="translate(-676.08 -62.13)"/><path class="cls-28" d="M989.7,256.14a.55.55,0,0,0-.55-.57.56.56,0,0,0-.6.52.58.58,0,0,0,1.15.05Z" transform="translate(-676.08 -62.13)"/><path class="cls-25" d="M984.59,253.86h-2.21a.52.52,0,0,0-.52.52.53.53,0,0,0,.52.52h2.21a.52.52,0,0,0,.52-.52.52.52,0,0,0-.52-.52Z" transform="translate(-676.08 -62.13)"/><path class="cls-25" d="M990.71,254l-2.2-.1a.52.52,0,0,0-.55.49.52.52,0,0,0,.5.54l2.2.1a.52.52,0,0,0,.55-.49.52.52,0,0,0-.5-.54Z" transform="translate(-676.08 -62.13)"/><path class="cls-29" d="M987.54,258.8c0-.57-.52-1.31-.94-1.31s-.88.7-.88,1.26a.79.79,0,0,0,.88.79c.42,0,.94-.18.94-.74Z" transform="translate(-676.08 -62.13)"/><path class="cls-27" d="M983.52,255.64l-.16.11a.09.09,0,0,0,0,.13.08.08,0,0,0,.12,0l.16-.11a.08.08,0,0,0,0-.12.09.09,0,0,0-.12,0Z" transform="translate(-676.08 -62.13)"/><path class="cls-27" d="M989.37,255.76l-.16.11a.08.08,0,0,0,0,.12.09.09,0,0,0,.12,0l.16-.11a.09.09,0,0,0,0-.13.08.08,0,0,0-.12,0Z" transform="translate(-676.08 -62.13)"/><path class="cls-54" d="M979.05,250.39s-2-1.77-1.3-2.72,1.94-1.45,3.78-2.32a11.61,11.61,0,0,1,4.52-1.49c3.08-.16,4.34,1,5.32,1.31a10.11,10.11,0,0,1,3.49,2c.68,1-.27,1.78-1.39,3.37S979.05,250.39,979.05,250.39Z" transform="translate(-676.08 -62.13)"/><path class="cls-53" d="M993.47,250.56s-5.69-3.49-14.42-.17v2.37a68.2,68.2,0,0,1,14.42,0Z" transform="translate(-676.08 -62.13)"/><path class="cls-55" d="M979.05,252.76s-.2.88.4,1c3.14.8,7.11.94,13.23.15a.87.87,0,0,0,.79-1.18A40.88,40.88,0,0,0,979.05,252.76Z" transform="translate(-676.08 -62.13)"/><path class="cls-56" d="M994.79,270.52l-.78-.34a.49.49,0,0,0-.41,0l-.78.35a.51.51,0,0,0-.3.45l0,1.65a.52.52,0,0,0,.11.32l.78,1a.51.51,0,0,0,.8,0l.77-1a.49.49,0,0,0,.1-.3l0-1.66A.52.52,0,0,0,994.79,270.52Z" transform="translate(-676.08 -62.13)"/><path class="cls-53" d="M993.79,274a.5.5,0,0,1-.4-.19l-.7-.89a.54.54,0,0,1-.11-.32l0-1.47a.51.51,0,0,1,.31-.46l.69-.3a.51.51,0,0,1,.42,0l.68.3a.49.49,0,0,1,.3.48l0,1.46a.45.45,0,0,1-.1.3l-.68.89a.51.51,0,0,1-.41.2Zm0-3.54a.45.45,0,0,0-.16,0l-.69.31a.38.38,0,0,0-.22.34l0,1.46a.43.43,0,0,0,.08.24l.69.88a.36.36,0,0,0,.3.15.38.38,0,0,0,.3-.15l.68-.89a.35.35,0,0,0,.08-.22l0-1.47a.38.38,0,0,0-.23-.35l-.68-.3A.4.4,0,0,0,993.81,270.44Z" transform="translate(-676.08 -62.13)"/><path class="cls-56" d="M987.39,272a.41.41,0,1,0-.41-.41A.4.4,0,0,0,987.39,272Z" transform="translate(-676.08 -62.13)"/><path class="cls-56" d="M987.39,274.39a.41.41,0,1,0,.4.4A.4.4,0,0,0,987.39,274.39Z" transform="translate(-676.08 -62.13)"/></g><text class="cls-57" transform="translate(207.85 173.49)">Anssi</text><text class="cls-57" transform="translate(207.85 218.49)"><tspan class="cls-58">F</tspan><tspan x="3.62" y="0">e</tspan><tspan class="cls-59" x="6.85" y="0">n</tspan><tspan x="10.69" y="0">g</tspan></text><text class="cls-57" transform="translate(254.85 218.49)">Belem</text><text class="cls-57" transform="translate(299.85 218.49)">Ni<tspan class="cls-59" x="6.37" y="0">n</tspan><tspan x="10.2" y="0">gxin</tspan></text><text class="cls-57" transform="translate(255.87 173.36)">Lisha</text><text class="cls-57" transform="translate(296.92 173.36)">Mi<tspan class="cls-59" x="7.32" y="0">n</tspan><tspan x="11.16" y="0">gmi</tspan><tspan class="cls-59" x="22.13" y="0">n</tspan><tspan x="25.96" y="0">g</tspan></text><polygon class="cls-60" points="164 258.72 156.45 258.72 155.63 263.76 156.45 268.88 164 268.88 164 258.72"/><rect class="cls-61" x="148.88" y="258.72" width="7.57" height="10.16"/><path class="cls-62" d="M810.29,330.6c-5.13,0-9.29,3.78-9.29,10.45l2.61,46.85h29.07l.82-25.68-.82-31.62Z" transform="translate(-676.08 -62.13)"/><path class="cls-63" d="M864.24,341.05c0-6.67-4.16-10.45-9.29-10.45H832.53v57.3h28.92Z" transform="translate(-676.08 -62.13)"/><path class="cls-64" d="M814.5,387.9V331.1a1.08,1.08,0,0,0-1.09-1.08H810.2a1.09,1.09,0,0,0-1.1,1.08v56.8Z" transform="translate(-676.08 -62.13)"/><path class="cls-65" d="M855.41,387.9V331.1a1.08,1.08,0,0,0-1.09-1.08h-3.21A1.08,1.08,0,0,0,850,331.1v56.8Z" transform="translate(-676.08 -62.13)"/><path class="cls-66" d="M815.76,390.84a2.38,2.38,0,0,1-2.39,2.36h-3.13a2.38,2.38,0,0,1-2.39-2.36v-3.09a2.38,2.38,0,0,1,2.39-2.37h3.13a2.38,2.38,0,0,1,2.39,2.37Z" transform="translate(-676.08 -62.13)"/><path class="cls-67" d="M856.67,390.84a2.38,2.38,0,0,1-2.39,2.36h-3.13a2.38,2.38,0,0,1-2.39-2.36v-3.09a2.38,2.38,0,0,1,2.39-2.37h3.13a2.38,2.38,0,0,1,2.39,2.37Z" transform="translate(-676.08 -62.13)"/><rect class="cls-68" x="127.38" y="323.25" width="57.95" height="32.45"/><rect class="cls-69" x="155.62" y="323.25" width="29.71" height="32.45"/><path class="cls-61" d="M812.16,300.12a4.37,4.37,0,0,1-3.61,5h0a4.42,4.42,0,0,1-5.09-3.57l-1.53-8.95a4.36,4.36,0,0,1,3.61-5h0a4.4,4.4,0,0,1,5.09,3.57Z" transform="translate(-676.08 -62.13)"/><path class="cls-70" d="M852.85,300.12a4.38,4.38,0,0,0,3.62,5h0a4.41,4.41,0,0,0,5.08-3.57l1.53-8.95a4.36,4.36,0,0,0-3.61-5h0a4.39,4.39,0,0,0-5.08,3.57Z" transform="translate(-676.08 -62.13)"/><path class="cls-71" d="M853.63,247c-.25,0-.51-.07-.76-.09a30.46,30.46,0,0,0-20.23-8.72l-6.95,14.11,1.82,16.11-7.78,14.45,12.78,42.71c14.18,0,25.87-12.88,27.42-29.44.05-.09.1-.17.14-.26a.55.55,0,0,1,0,.12l0-.15a51.08,51.08,0,0,0,5.09-16C867.71,263.15,862.54,248.45,853.63,247Z" transform="translate(-676.08 -62.13)"/><path class="cls-72" d="M832.64,238.18c-18,0-33.4,16.36-33.4,36.54a40,40,0,0,0,3.66,16.85,40.53,40.53,0,0,0,2.36,6.05c2.1,15.84,13.5,27.95,27.25,27.95C832.51,325.57,832.93,238.18,832.64,238.18Z" transform="translate(-676.08 -62.13)"/><rect class="cls-68" x="129.99" y="352.96" width="16.24" height="42.32"/><rect class="cls-69" x="128.9" y="376.83" width="18.41" height="18.45"/><path class="cls-64" d="M821.67,459.42a3,3,0,0,1-2.9,3.16h-9.16a3,3,0,0,1-2.9-3.16V446a3,3,0,0,1,2.9-3.16h9.16a3,3,0,0,1,2.9,3.16Z" transform="translate(-676.08 -62.13)"/><rect class="cls-69" x="166.46" y="352.96" width="16.24" height="42.32"/><rect class="cls-73" x="165.37" y="376.83" width="18.41" height="18.45"/><path class="cls-64" d="M858.14,459.42a3,3,0,0,1-2.9,3.16h-9.16a3,3,0,0,1-2.9-3.16V446a3,3,0,0,1,2.9-3.16h9.16a3,3,0,0,1,2.9,3.16Z" transform="translate(-676.08 -62.13)"/><path class="cls-74" d="M871,415a2.9,2.9,0,0,1-2.91,2.88H797.16a2.9,2.9,0,0,1-2.91-2.88v-4.5a2.9,2.9,0,0,1,2.91-2.88h70.93a2.9,2.9,0,0,1,2.91,2.88Z" transform="translate(-676.08 -62.13)"/><path class="cls-74" d="M867.75,379.11A20,20,0,0,1,847.64,399h-30a20,20,0,0,1-20.11-19.87V364.9A20.05,20.05,0,0,1,817.61,345h30a20.05,20.05,0,0,1,20.11,19.88Z" transform="translate(-676.08 -62.13)"/><path class="cls-75" d="M868.09,407.57H832.63v10.26h35.46A2.9,2.9,0,0,0,871,415v-4.5A2.9,2.9,0,0,0,868.09,407.57Z" transform="translate(-676.08 -62.13)"/><path class="cls-75" d="M847.64,345h-15v54h15a20,20,0,0,0,20.11-19.87V364.9A20.05,20.05,0,0,0,847.64,345Z" transform="translate(-676.08 -62.13)"/><path class="cls-76" d="M840.1,432v-5.91H864v-8.3H801.24v8.3h23.91V432h3V448h-18.3c-3.08,0-5.61,1.89-5.61,4.43s2.53,4.43,5.61,4.43h45.58c3.08,0,5.6-1.89,5.6-4.43s-2.52-4.43-5.6-4.43H837.11V432Z" transform="translate(-676.08 -62.13)"/><path class="cls-77" d="M840.1,432v-5.91H864v-8.3H832.63v39h22.79c3.08,0,5.6-1.89,5.6-4.43s-2.52-4.43-5.6-4.43H837.11V432Z" transform="translate(-676.08 -62.13)"/><path class="cls-76" d="M811,463.19a5.23,5.23,0,1,1-5.23-5.17A5.2,5.2,0,0,1,811,463.19Z" transform="translate(-676.08 -62.13)"/><path class="cls-76" d="M828.89,463.19a5.23,5.23,0,1,1-5.23-5.17A5.2,5.2,0,0,1,828.89,463.19Z" transform="translate(-676.08 -62.13)"/><path class="cls-77" d="M846.82,463.19a5.23,5.23,0,1,1-5.23-5.17A5.2,5.2,0,0,1,846.82,463.19Z" transform="translate(-676.08 -62.13)"/><path class="cls-77" d="M864.75,463.19a5.23,5.23,0,1,1-5.23-5.17A5.2,5.2,0,0,1,864.75,463.19Z" transform="translate(-676.08 -62.13)"/><rect class="cls-76" x="149.57" y="316.1" width="13.94" height="31.72"/><rect class="cls-77" x="156.54" y="316.1" width="6.97" height="31.72"/></svg>